# xmcd
#
# Track frame offsets:
# 150
# 13886
# 25035
# 37319
# 46987
# 60006
# 72866
# 88499
# 99927
# 114442
# 128644
# 168763
# 181983
# 193442
# 214273
# 230135
# 242415
# 250353
# 264717
#
# Disc length: 3810 seconds
#
#
# Revision: 0
# Processed by: cddbd v1.5.2PL0 Copyright (c) Steve Scherf et al.
# Submitted via: FreeRIP 2.941 
#
DISCID=0d0ee013
DTITLE=Jim MacLeod And His Band - Scottish Country Dance Album
DYEAR=2005
DGENRE=National Folk
TTITLE0=Dashing White Sergeant
TTITLE1=Dashing White Sergeant Encore
TTITLE2=Military Two-Step
TTITLE3=Military Two-Step Encore
TTITLE4=Pride Of Erin
TTITLE5=Pride Of Erin Encore
TTITLE6=Grand March and Reels
TTITLE7=The Hebridean Polka
TTITLE8=Gay Gordons
TTITLE9=Gay Gordons Encore
TTITLE10=Eightsome Reel
TTITLE11=Scottish Waltz
TTITLE12=Barn Dance
TTITLE13=Circassian Circle
TTITLE14=Duke of Perth
TTITLE15=Highland Scottishe
TTITLE16=Round Reel of Eight
TTITLE17=Canadian Barn Dance
TTITLE18=Strip The Willow
EXTD=
EXTT0=
EXTT1=
EXTT2=
EXTT3=
EXTT4=
EXTT5=
EXTT6=
EXTT7=
EXTT8=
EXTT9=
EXTT10=
EXTT11=
EXTT12=
EXTT13=
EXTT14=
EXTT15=
EXTT16=
EXTT17=
EXTT18=
PLAYORDER=
